<?xml version="1.0" encoding="UTF-8"?>
<svg id="Calque_2" data-name="Calque 2" xmlns="http://www.w3.org/2000/svg" viewBox="0 0 33.17 81">
  <defs>
    <style>
      .cls-1 {
        fill: #dff4f4;
      }

      .cls-1, .cls-2 {
        opacity: .7;
        stroke-width: 0px;
      }

      .cls-2 {
        fill: #fff;
      }
    </style>
  </defs>
  <g id="Calque_1-2" data-name="Calque 1">
    <g>
      <path class="cls-1" d="m32.71,15.55C31.56,7.04,24.58.16,15.98,0c-3.53-.06-6.96.92-9.73,2.95-1.95,1.44-3.51,3.35-4.61,5.56-2.79,5.61-1.92,12.37,1.68,17.49,1.04,1.48,2.2,3.16,3.43,5.02,6.62,9.96,7.55,13.11,7.94,14.7,1.15,4.78.14,7.19,0,11.76-.17,5.58.97,13.53,7.06,23.52-1.53-12.82.39-22.15,2.35-28.22,2.77-8.54,6.04-11.9,7.94-20.29,1.42-6.27,1.32-12.08.66-16.94Z"/>
      <path class="cls-2" d="m5.25,20c-1.99-6.12-1.61-10.28-2.06-10.27-.52,0-1.93,5.64.06,11.27,1.76,4.99,5.58,8.29,6,8,.37-.26-2.14-3.28-4-9Z"/>
    </g>
  </g>
</svg>