<?xml version="1.0" encoding="UTF-8"?>
<svg id="Calque_2" data-name="Calque 2" xmlns="http://www.w3.org/2000/svg" viewBox="0 0 42 84.87">
  <defs>
    <style>
      .cls-1 {
        fill: #dff4f4;
      }

      .cls-1, .cls-2 {
        opacity: .7;
        stroke-width: 0px;
      }

      .cls-2 {
        fill: #fff;
      }
    </style>
  </defs>
  <g id="Calque_1-2" data-name="Calque 1">
    <g>
      <path class="cls-1" d="m41.9,30.78c.24-12.41-4.99-23.37-14.06-28.15C23.93.56,19.96,0,16.75,0,16.75,0-1.56,1.31.11,16.16c.52,4.62,2.79,8.85,6.02,12.19,6.74,6.96,19.48,24.17,17.67,40.46-1.16,10.23-.94,15.57.66,16.02,1.02.29,2.62-1.43,4.78-5.16,2.5-3.99,5.07-8.81,7.24-14.49,5.25-13.71,5.82-26.14,5.43-34.41Z"/>
      <path class="cls-2" d="m38.14,26c-.37.09-.89-5.5-5-12-4.21-6.66-9.27-9.66-9-10,.28-.35,6.08,2.3,10,8,4.44,6.46,4.42,13.9,4,14Z"/>
    </g>
  </g>
</svg>