<?xml version="1.0" encoding="UTF-8"?>
<svg id="Calque_2" data-name="Calque 2" xmlns="http://www.w3.org/2000/svg" viewBox="0 0 26.28 53.35">
  <defs>
    <style>
      .cls-1 {
        fill: #dff4f4;
      }

      .cls-1, .cls-2 {
        opacity: .7;
        stroke-width: 0px;
      }

      .cls-2 {
        fill: #fff;
      }
    </style>
  </defs>
  <g id="Calque_1-2" data-name="Calque 1">
    <g>
      <path class="cls-1" d="m21.67,19.56c.55-.42,1.07-.87,1.54-1.38,2.47-2.71,7.56-10.31-5.5-16.72-.18-.09-.35-.17-.54-.26,0,0-4.21-1.9-8.74-.92C4.4,1.16-.3,8.25.01,18c.05,1.42.37,2.82.92,4.12,1.99,4.64,4.33,7.88,6.23,10.08,3.43,3.97,7.42,6.81,7.41,11.31,0,1.48-.44,2.69-.8,3.47-2.17,4.5-2.09,5.84-1.61,6.22.59.47,2.11-.27,3-1,1.04-.85,1.32-1.76,2-3,.56-1.02,1.47-2.45,3-4,1.7-2.15,2.08-3.93,2.12-5.12.11-2.81-.58-4.25-3.12-8.88-.38-.69-1.54-3.01-1-6,.55-3.03,2.51-4.88,3.5-5.64Z"/>
      <path class="cls-2" d="m18.17,20.2c-.09-.11,1.24-.99,3-3,2.03-2.31,2.85-4.08,3-4,.15.08-.47,2.14-2,4-1.7,2.08-3.89,3.14-4,3Z"/>
    </g>
  </g>
</svg>