<?xml version="1.0" encoding="UTF-8"?>
<svg id="Calque_2" data-name="Calque 2" xmlns="http://www.w3.org/2000/svg" viewBox="0 0 14.62 21.55">
  <defs>
    <style>
      .cls-1 {
        fill: #dff4f4;
      }

      .cls-1, .cls-2 {
        opacity: .7;
        stroke-width: 0px;
      }

      .cls-2 {
        fill: #fff;
      }
    </style>
  </defs>
  <g id="Calque_1-2" data-name="Calque 1">
    <g>
      <path class="cls-1" d="m9.56.84C7.73.27,1.17-1.47.11,2.76c-.28,1.14,0,2.34.64,3.33,1.6,2.49,5.24,8.65,4.55,12.1-.16.8-.07,1.65.44,2.29.72.9,2.1,1.66,4.66.46,1.06-.5,1.87-1.4,2.31-2.49,1.48-3.72,4.37-13.1-2.29-17.21-.27-.17-.56-.29-.86-.39Z"/>
      <path class="cls-2" d="m13.22,10.73c-.13,0,.08-1.99-.89-4.58-.99-2.65-2.53-4.08-2.41-4.18.12-.1,1.95,1.26,2.9,3.55,1.08,2.6.55,5.2.4,5.21Z"/>
    </g>
  </g>
</svg>