<?xml version="1.0" encoding="UTF-8"?>
<svg id="Calque_2" data-name="Calque 2" xmlns="http://www.w3.org/2000/svg" viewBox="0 0 12.54 24.9">
  <defs>
    <style>
      .cls-1 {
        fill: #dff4f4;
      }

      .cls-1, .cls-2 {
        opacity: .7;
        stroke-width: 0px;
      }

      .cls-2 {
        fill: #fff;
      }
    </style>
  </defs>
  <g id="Calque_1-2" data-name="Calque 1">
    <g>
      <path class="cls-1" d="m.27,4.44c.13-.39,1.1-3.27,4.04-4.19,2.26-.7,4.17.25,4.66.47,1.94.87,3.34,2.71,3.54,4.82.11,1.2-.08,2.18-.28,2.97-.4,1.57-.87,1.83-1.48,3.38-.51,1.3-.42,1.73-.61,3.02-.06.43-.12.71-.13.78-.08.53-.19.94-.27,1.2-.41,1.4-.87,1.81-1,3-.04.34-.07.62,0,1,.16.92.68,1.11,1,2,.34.93.21,1.94,0,2-.13.03-.29-.25-.69-.91-1.03-1.7-.88-1.3-1.31-2.09-.37-.67-1.29-3.79-2.55-5.59-.79-1.13-.93-.62-2.45-2.41-.8-.94-1.48-1.75-2-3C.15,9.47.08,8.24.04,7.43c-.05-1.03-.11-1.95.23-2.99Z"/>
      <path class="cls-2" d="m1.9,8.13c-.42-2.14-.34-3.6-.43-3.6-.11,0-.4,1.97.01,3.95.37,1.75,1.16,2.9,1.25,2.8.08-.09-.45-1.15-.83-3.15Z"/>
    </g>
  </g>
</svg>