<?xml version="1.0" encoding="UTF-8"?>
<svg id="Calque_2" data-name="Calque 2" xmlns="http://www.w3.org/2000/svg" viewBox="0 0 32.24 84.03">
  <defs>
    <style>
      .cls-1 {
        fill: #dff4f4;
      }

      .cls-1, .cls-2 {
        opacity: .7;
        stroke-width: 0px;
      }

      .cls-2 {
        fill: #fff;
      }
    </style>
  </defs>
  <g id="Calque_1-2" data-name="Calque 1">
    <g>
      <path class="cls-1" d="m23.96,22.4c5.08-6.41,3.89-15.44-1.73-19.79C18.48-.29,13.17-.8,8.53,1.21c-2.19.95-3.97,2.63-5.24,4.65-1.06,1.68-1.97,3.61-2.57,5.8-3.79,13.95,8.55,26.33,9.46,27.22,4.63,4.5,4.07,3.57,7.11,7.96,1.08,1.55,4.67,6.96,9.22,23.87,2.29,8.49,3.07,13.4,4.06,13.32,1.14-.08,1.5-6.62,1.57-7.91.67-12.23-2.63-21.4-3.35-23.3-1.03-2.71-2.66-6.36-5.27-10.4-.9-1.82-2.6-5.88-2.21-11.19.3-4.07,1.7-7.13,2.64-8.83Z"/>
      <path class="cls-2" d="m5.62,7.66c.17.1-.44,1.82-.95,4.33-1.27,6.21-.55,10.35-.85,10.44-.31.1-1.64-4.52-.47-9.51.68-2.9,2.06-5.37,2.27-5.25Z"/>
    </g>
  </g>
</svg>